<svg width="300" height="150" viewbox = "0 0 300 150"  xmlns="http://www.w3.org/2000/svg">

<!--
<json>
{
"shapes":[
    "0233:0337,0337,0310,0341,0336,0322,0341,0323,0336,0341,0336,0324,0341,0336,0341,0325,0336,0341,0336,0326,0341,0336,0341,0327,0336,0341,0336,0341,0322,0336,0341,0336,0321,0341,0336,0341,0323,0336,0341,0336,0324,",
    "0234:0337,0337,0337,0336,0332,0332,0332,0336,0333,0350,0334,0343,0335,0330,0335,0335,0201,0201,0201,0335,0333,0334,0334,0343,0335,0330,0335,0335,0201,0335,0333,0334,0334,0343,0335,0330,0335,0335,0201,0201,0201,0335,0333,0334,0334,0343,0333,0335,0335,0335,0201,0304,0336,0333,0331,0333,0160,0157,0157,0160,0337,0365,0333,0333,0333,0333,0333,"
],
"glyph":"0337,0337,0337,0336,0332,0332,0332,0336,0333,0350,0334,0343,0335,0330,0335,0335,0201,0201,0201,0335,0333,0334,0334,0343,0335,0330,0335,0335,0201,0335,0333,0334,0334,0343,0335,0330,0335,0335,0201,0201,0201,0335,0333,0334,0334,0343,0333,0335,0335,0335,0201,0304,0336,0333,0331,0333,0160,0157,0157,0160,0337,0365,0333,0333,0333,0333,0333,",
"url":"http://www.lafelabs.org/startdeck/hello/",
"raw":"https://raw.githubusercontent.com/LafeLabs/startdeck/master/hello/index.html",
"w":300,
"h":150,
"x0":820.9912682300961,
"y0":312.71553310998655,
"unit":19.784466890013498
}

</json>
-->
  <path d="M51.07766554993415 55.215533109986524           A39.568933780026995 39.568933780026995 0 0 1 90.64659932996115 15.646599329959535" fill = "none" stroke = "black" stroke-width = "2" />
    <line x1="91" y1="16" x2="130" y2="16" style="stroke:black;stroke-width:2" />
    <line x1="130" y1="16" x2="170" y2="16" style="stroke:black;stroke-width:2" />
    <line x1="170" y1="16" x2="209" y2="16" style="stroke:black;stroke-width:2" />
  <path d="M209.35340067004216 15.646599329959535           A39.568933780026995 39.568933780026995 0 0 1 248.92233445006917 55.21553310998653" fill = "none" stroke = "black" stroke-width = "2" />
    <line x1="249" y1="55" x2="249" y2="95" style="stroke:black;stroke-width:2" />
  <path d="M248.92233445006917 94.78446689001353           A39.568933780026995 39.568933780026995 0 0 1 209.35340067004216 134.35340067004051" fill = "none" stroke = "black" stroke-width = "2" />
    <line x1="209" y1="134" x2="170" y2="134" style="stroke:black;stroke-width:2" />
    <line x1="170" y1="134" x2="130" y2="134" style="stroke:black;stroke-width:2" />
    <line x1="130" y1="134" x2="91" y2="134" style="stroke:black;stroke-width:2" />
  <path d="M90.64659932996113 134.35340067004051           A39.568933780026995 39.568933780026995 0 0 1 51.07766554993414 94.78446689001352" fill = "none" stroke = "black" stroke-width = "2" />
    <line x1="51" y1="95" x2="51" y2="55" style="stroke:black;stroke-width:2" />
    <text x="91" y = "75" fill = "black" font-size = "39.568933780026995px" font-family = "futura">&#x3B1;&#x3B2;&#x3B3;&#x3B4;&#x3B5;&#x3B6;</text>
</svg>